<svg width="492" height="288" fill="none" xmlns="http://www.w3.org/2000/svg">
  <path fill="#00A854" fill-opacity=".1" stroke="#00A854" stroke-width="2.6" d="M310.3 219.2h143.4v65.5H310.3z"/>
  <circle cx="453.5" cy="220.5" r="3.5" fill="#fff" stroke="#000" stroke-width="2"/>
  <circle cx="310.5" cy="283.5" r="3.5" fill="#fff" stroke="#000" stroke-width="2"/>
  <circle cx="310.5" cy="220.5" r="3.5" fill="#fff" stroke="#000" stroke-width="2"/>
  <path fill="#000" d="M343 0h104v24H343z"/>
  <path d="M348.2 8.4V7h6v1.5h-2.1v7h2.1V17h-6v-1.5h2.1v-7h-2.1zm8.2-1.5h3.2c1 0 1.8.3 2.4.7.6.5.9 1.1.9 2 0 .5-.2 1-.5 1.4a2 2 0 01-1.4.7c.6.1 1.1.4 1.5.8.4.4.6 1 .6 1.6 0 .5-.1.9-.3 1.2-.1.4-.3.7-.6 1a3 3 0 01-1 .5l-1.5.2h-3.3V7zm1.7 5.6v3h1.5c.6 0 1 0 1.3-.3.2-.3.4-.7.4-1.2 0-.4-.2-.8-.4-1-.3-.3-.7-.5-1.3-.5h-1.5zm1.5-1.4c.5 0 .8-.1 1.1-.4.3-.2.4-.6.4-1s-.1-.7-.4-1c-.3-.2-.6-.3-1-.3H358V11h1.5zm7-4.2l1 3.2.2.5a10.8 10.8 0 01.2 1l.2-.5a9.7 9.7 0 01.2-1l1-3.2h2V17H370v-6.5A11.2 11.2 0 01370 8h-.2l-.2.8a12.4 12.4 0 01-.3 1.3l-.7 2.4h-1.4l-.7-2.4a19.6 19.6 0 01-.5-2h-.2a18.5 18.5 0 01.2 2.3V17h-1.5V7h2zm18.2 10.2c-.5 0-1 0-1.3-.2a2.8 2.8 0 01-1.7-1.6c-.2-.4-.3-.8-.3-1.3V10c0-.5.1-1 .3-1.3a2.8 2.8 0 011.7-1.6 4 4 0 011.3-.2c.5 0 1 0 1.4.2.4.1.7.3 1 .6.3.2.5.6.7 1 .2.3.3.7.3 1.1h-1.8c0-.4-.1-.7-.4-1-.3-.2-.7-.4-1.2-.4-.4 0-.8.2-1.1.5-.3.2-.4.6-.4 1V14c0 .5.1.9.4 1.2.3.2.6.4 1.1.4.5 0 .9-.2 1.2-.4.3-.3.4-.6.4-1h1.8a3 3 0 01-1 2.1c-.6.6-1.4.8-2.4.8zm8.4 0c-.5 0-1 0-1.4-.2a2.8 2.8 0 01-1.7-1.6c-.2-.4-.3-.8-.3-1.3V10c0-.5.1-1 .3-1.3a2.8 2.8 0 011.7-1.6l1.4-.2c.5 0 1 0 1.3.2.5.1.8.3 1.1.6l.7 1 .2 1.3V14c0 .5 0 1-.2 1.3l-.7 1a3 3 0 01-1 .6 4 4 0 01-1.4.2zm-1.6-3c0 .4.1.8.4 1 .3.4.7.5 1.2.5s.8-.1 1.1-.4c.3-.3.5-.7.5-1.2V10c0-.5-.2-.9-.5-1.2-.3-.3-.6-.4-1.1-.4-.5 0-.9.1-1.2.4-.3.3-.4.7-.4 1.2V14zm6.8-7.2h3.1c.5 0 1 .1 1.4.3.4.1.8.3 1 .6.4.3.6.6.8 1l.2 1.3v3.7c0 .5 0 1-.2 1.3l-.7 1-1.1.7-1.4.2h-3.1V7zm1.8 8.5h1.3c.5 0 .9-.2 1.2-.4.3-.3.4-.7.4-1.2V10c0-.5-.1-.8-.4-1.1-.3-.3-.7-.5-1.2-.5h-1.3v6.9zM407 17V7h6.2v1.5h-4.5V11h4v1.5h-4v2.9h4.5V17H407zM437.2 10.1a1 1 0 00-1.2-1.4l-.1.1-4.4 4.4-4.4-4.4a1 1 0 00-1.2 0h-.1a1 1 0 00-.1 1.2v.1l5.1 5.1c.3.3.9.4 1.2 0h.1l5.1-5z" fill="#fff"/>
  <path fill="#000" d="M178 156h95v24h-95z"/>
  <path d="M186.3 173.1c-.5 0-1 0-1.4-.2a2.8 2.8 0 01-1.7-1.6c-.2-.4-.3-.8-.3-1.3V166c0-.5.1-1 .3-1.3a2.8 2.8 0 011.7-1.6 4 4 0 011.4-.2c.5 0 1 0 1.3.2.4.1.7.3 1 .6.3.2.6.6.7 1 .2.3.3.7.3 1.1h-1.7c0-.4-.2-.7-.5-1-.3-.2-.7-.4-1.1-.4-.5 0-.9.2-1.2.5-.3.2-.4.6-.4 1v4.2c0 .5.1.9.4 1.2.3.2.7.4 1.2.4.4 0 .8-.2 1-.4.4-.3.5-.6.6-1h1.7a3 3 0 01-1 2.1c-.6.6-1.3.8-2.3.8zm8.3 0c-.5 0-1 0-1.4-.2a2.8 2.8 0 01-1.7-1.6c-.2-.4-.3-.8-.3-1.3V166c0-.5.1-1 .3-1.3a2.8 2.8 0 011.7-1.6l1.4-.2c.5 0 1 0 1.4.2.4.1.7.3 1 .6l.7 1c.2.4.2.8.2 1.3v4.1c0 .5 0 1-.2 1.3l-.7 1a3 3 0 01-1 .6 4 4 0 01-1.4.2zm-1.6-3c0 .4.1.8.4 1 .3.4.7.5 1.2.5s.9-.1 1.2-.4c.2-.3.4-.7.4-1.2V166c0-.5-.2-.9-.4-1.2-.3-.3-.7-.4-1.2-.4s-.9.1-1.2.4c-.3.3-.4.7-.4 1.2v4.1zm10 3c-1 0-1.8-.2-2.4-.8a3 3 0 01-.8-2.2v-7.2h1.7v7.2c0 .5.2.8.4 1.1.2.3.6.4 1 .4.6 0 1-.1 1.2-.4.2-.3.4-.6.4-1.1v-7.2h1.7v7.2a3 3 0 01-.8 2.2c-.6.6-1.4.8-2.4.8zm7.3-10.2l2.4 6.7.2.5a30.2 30.2 0 01.2 1.2h.2v-.2l-.1-.5a38.3 38.3 0 00-.1-1.5V163h1.5V173h-2.1l-2.4-6.7a5.5 5.5 0 01-.3-1.2l-.1-.5h-.2a52.6 52.6 0 01.2 2.2v6.2h-1.5v-10h2.1zm5.8 1.6V163h7.3v1.6h-2.7v8.5h-1.8v-8.5h-2.8zm12.2-1.6c.5 0 1 0 1.4.2l1 .6c.4.3.6.6.7 1l.3 1.2a3 3 0 01-.5 1.8c-.4.4-.8.8-1.4 1l2 4.3h-2l-1.7-4h-1.3v4H225v-10h3.3zm-1.5 4.7h1.5c.5 0 .9-.2 1.2-.5.3-.2.4-.6.4-1.1 0-.5-.1-.9-.4-1.2-.3-.3-.7-.4-1.2-.4h-1.5v3.2zm7.7-4.7l1.7 4 .2.4.1.4v.3h.1a7 7 0 01.4-1.1l1.6-4h1.9l-3 6.6v3.5h-1.8v-3.5l-3-6.6h1.8zM263.2 166.1a1 1 0 00-1.2-1.4l-.1.1-4.4 4.4-4.4-4.4a1 1 0 00-1.2 0h-.1a1 1 0 00-.1 1.2v.1l5.1 5.1c.3.3.9.4 1.2 0h.1l5.1-5z" fill="#fff"/>
  <path fill="#00A854" fill-opacity=".1" stroke="#00A854" stroke-width="2.6" d="M344.3 24.3h143.4v103.3H344.3z"/>
  <circle cx="487.5" cy="24.5" r="3.5" fill="#fff" stroke="#000" stroke-width="2"/>
  <circle cx="487.5" cy="127.5" r="3.5" fill="#fff" stroke="#000" stroke-width="2"/>
  <circle cx="344.5" cy="127.5" r="3.5" fill="#fff" stroke="#000" stroke-width="2"/>
  <circle cx="344.5" cy="24.5" r="3.5" fill="#fff" stroke="#000" stroke-width="2"/>
  <path fill="#00A854" fill-opacity=".1" stroke="#00A854" stroke-width="2.6" d="M175.3 181.2h143.4v27.7H175.3z"/>
  <circle cx="318.5" cy="183.5" r="3.5" fill="#fff" stroke="#000" stroke-width="2"/>
  <circle cx="318.5" cy="206.5" r="3.5" fill="#fff" stroke="#000" stroke-width="2"/>
  <circle cx="175.5" cy="206.5" r="3.5" fill="#fff" stroke="#000" stroke-width="2"/>
  <circle cx="175.5" cy="183.5" r="3.5" fill="#fff" stroke="#000" stroke-width="2"/>
  <path fill="#00A854" fill-opacity=".1" stroke="#00A854" stroke-width="2.6" d="M301.5 177.6h105v42.8h-105z"/>
  <circle cx="405.5" cy="179.5" r="3.5" fill="#fff" stroke="#000" stroke-width="2"/>
  <circle cx="405.5" cy="218.5" r="3.5" fill="#fff" stroke="#000" stroke-width="2"/>
  <circle cx="302.5" cy="218.5" r="3.5" fill="#fff" stroke="#000" stroke-width="2"/>
  <circle cx="302.5" cy="179.5" r="3.5" fill="#fff" stroke="#000" stroke-width="2"/>
  <path fill="#000" d="M308 200h154v24H308z"/>
  <path d="M312.8 214.3h1.8c0 .4.1.7.4 1 .3.2.7.3 1.2.3.6 0 1-.1 1.2-.3.3-.3.5-.6.5-1 0-.3-.1-.6-.4-.9l-.8-.5-1.1-.3c-.9-.3-1.6-.6-2-1.1-.4-.5-.6-1.2-.6-2 0-.4 0-.7.2-1 .1-.4.4-.7.6-1a3 3 0 011-.5c.5-.2 1-.2 1.4-.2 1 0 1.8.2 2.3.7.6.5 1 1.2 1 2h-1.8c0-.4-.2-.7-.4-.9-.3-.2-.7-.3-1.1-.3-.5 0-.8.1-1 .3a1 1 0 00-.5 1c0 .2.1.5.3.7.2.2.5.4 1 .5l1.1.4c.8.2 1.4.6 1.9 1.1.4.5.6 1.2.6 2a2.7 2.7 0 01-2 2.6c-.4.2-.9.2-1.4.2-.5 0-1 0-1.4-.2l-1-.5-.8-1a3 3 0 01-.2-1zm8.8 2.7v-10h6.2v1.5h-4.5v2.6h4v1.5h-4v2.9h4.5v1.5h-6.2zm10.3-10l2.4 6.6.2.5a19.6 19.6 0 01.2 1.2h.2v-.2l-.1-.5a38.3 38.3 0 00-.1-1.5V207h1.5V217h-2.1l-2.4-6.7a6 6 0 01-.3-1.2v-.5h-.3a52.6 52.6 0 01.2 2.2v6.2h-1.5v-10h2.1zm6.3 0h3.1c.5 0 1 0 1.4.2.4.1.8.3 1 .6.4.3.6.6.8 1l.2 1.3v3.7c0 .5 0 1-.2 1.3l-.7 1-1 .7-1.5.2h-3v-10zm1.8 8.4h1.3c.5 0 1-.2 1.2-.4.3-.3.5-.7.5-1.2V210c0-.5-.2-.8-.5-1.1-.3-.3-.7-.5-1.2-.5H340v6.9zm6.8 1.6v-10h6.2v1.5h-4.5v2.6h4v1.5h-4v2.9h4.5v1.5h-6.2zm11.5-10l1.4.1 1 .6c.4.3.6.6.7 1l.3 1.2a3 3 0 01-.5 1.8c-.4.4-.8.8-1.4 1l2 4.3h-2l-1.7-4h-1.3v4H355v-10h3.3zm-1.5 4.6h1.5c.5 0 .9-.2 1.2-.5.3-.2.4-.6.4-1.1 0-.5-.1-.9-.4-1.2-.3-.3-.7-.4-1.2-.4h-1.5v3.2zm17-4.7h2.4l2.6 10.1H377l-.6-2.5h-3l-.5 2.5H371l2.7-10zm2.3 6.2l-.9-3.6v-.5a16.4 16.4 0 01-.2-1 68.5 68.5 0 00-.3 1.5l-.9 3.6h2.3zm4-6.2h3.2c.5 0 1 .1 1.4.3.4.1.8.3 1 .6.4.3.6.6.8 1l.2 1.3v3.7c0 .5 0 1-.3 1.3-.1.4-.3.7-.6 1l-1.1.7-1.4.2h-3.1v-10zm1.8 8.5h1.4c.5 0 .9-.2 1.2-.4.3-.3.4-.7.4-1.2V210c0-.5-.1-.8-.4-1.1-.3-.3-.7-.5-1.2-.5h-1.4v6.9zm6.7-8.5h3c.6 0 1 .1 1.5.3.4.1.8.3 1 .6.4.3.6.6.7 1 .2.4.3.8.3 1.3v3.7c0 .5 0 1-.3 1.3-.1.4-.3.7-.6 1l-1.1.7-1.4.2h-3.1v-10zm1.7 8.5h1.4c.5 0 .9-.2 1.2-.4.3-.3.4-.7.4-1.2V210c0-.5-.1-.8-.4-1.1-.3-.3-.7-.5-1.2-.5h-1.4v6.9zm10-8.5c.5 0 1 0 1.4.2l1 .6c.3.3.6.6.7 1l.3 1.2a3 3 0 01-.5 1.8c-.4.4-.8.8-1.4 1l2 4.3h-2l-1.8-4h-1.3v4H397v-10h3.3zm-1.6 4.7h1.6c.5 0 .9-.2 1.1-.5.3-.2.5-.6.5-1.1 0-.5-.2-.9-.5-1.2-.2-.3-.6-.4-1.1-.4h-1.6v3.2zm6.8 5.4v-10h6.2v1.5h-4.4v2.6h4v1.5h-4v2.9h4.4v1.5h-6.2zm8-2.7h1.8c0 .4.2.7.5 1 .3.2.7.3 1.2.3s.9-.1 1.2-.3c.3-.3.4-.6.4-1l-.3-.9c-.2-.2-.5-.4-.9-.5l-1.1-.3c-.9-.3-1.5-.6-2-1.1-.4-.5-.6-1.2-.6-2 0-.4 0-.7.2-1l.7-1a3 3 0 011-.5c.4-.2.9-.2 1.4-.2 1 0 1.7.2 2.3.7.6.5.9 1.2 1 2h-1.9c0-.4-.1-.7-.4-.9-.3-.2-.6-.3-1-.3-.5 0-.9.1-1.2.3a1 1 0 00-.4 1c0 .2.1.5.3.7.2.2.5.4 1 .5l1.1.4c.9.2 1.5.6 2 1.1.3.5.6 1.2.6 2a2.7 2.7 0 01-2 2.6c-.5.2-1 .2-1.5.2s-1 0-1.4-.2l-1-.5-.7-1a3 3 0 01-.3-1zm8.4 0h1.8c0 .4.2.7.5 1 .3.2.7.3 1.2.3s.9-.1 1.2-.3c.3-.3.4-.6.4-1l-.3-.9c-.2-.2-.5-.4-1-.5l-1-.3c-.9-.3-1.5-.6-2-1.1-.4-.5-.6-1.2-.6-2 0-.4 0-.7.2-1l.7-1a3 3 0 011-.5c.4-.2.9-.2 1.4-.2 1 0 1.7.2 2.3.7.5.5.9 1.2 1 2h-1.9c0-.4-.1-.7-.4-.9-.3-.2-.6-.3-1-.3-.5 0-.9.1-1.2.3a1 1 0 00-.4 1c0 .2.1.5.3.7.2.2.5.4 1 .5l1.1.4c.8.2 1.5.6 1.9 1.1.4.5.7 1.2.7 2a2.7 2.7 0 01-2 2.6c-.5.2-1 .2-1.5.2s-1 0-1.4-.2l-1-.5c-.3-.3-.6-.6-.7-1a3 3 0 01-.3-1zM452.2 210.1a1 1 0 00-1.2-1.4l-.1.1-4.4 4.4-4.4-4.4a1 1 0 00-1.2 0h-.1a1 1 0 00-.1 1.2v.1l5.1 5.1c.3.3.9.4 1.2 0h.1l5.1-5z" fill="#fff"/>
  <path fill="#000" d="M307 153h87v24h-87z"/>
  <path d="M311.8 167.3h1.8c0 .4.1.7.4 1 .3.2.7.3 1.2.3.6 0 1-.1 1.2-.3.3-.3.5-.6.5-1 0-.3-.1-.6-.4-.9l-.8-.5-1.1-.3c-.9-.3-1.6-.6-2-1.1-.4-.5-.6-1.2-.6-2 0-.4 0-.7.2-1 .1-.4.4-.7.6-1a3 3 0 011-.5c.5-.2 1-.2 1.4-.2 1 0 1.8.2 2.3.7.6.5 1 1.2 1 2h-1.8c0-.4-.2-.7-.4-.9-.3-.2-.7-.3-1.1-.3-.5 0-.8.1-1 .3a1 1 0 00-.5 1c0 .2.1.5.3.7.2.2.5.4 1 .5l1.1.4c.8.2 1.4.6 1.9 1.1.4.5.6 1.2.6 2a2.7 2.7 0 01-2 2.6c-.4.2-.9.2-1.4.2-.5 0-1 0-1.4-.2l-1-.5-.8-1a3 3 0 01-.2-1zm8.8 2.7v-10h6.2v1.5h-4.5v2.6h4v1.5h-4v2.9h4.5v1.5h-6.2zm10.3-10l2.4 6.6.2.5a19.6 19.6 0 01.2 1.2h.2v-.2l-.1-.5a38.3 38.3 0 00-.1-1.5V160h1.5V170h-2.1l-2.4-6.7a6 6 0 01-.3-1.2v-.5h-.3a52.6 52.6 0 01.2 2.2v6.2h-1.5v-10h2.1zm6.3 0h3.1c.5 0 1 0 1.4.2.4.1.8.3 1 .6.4.3.6.6.8 1l.2 1.3v3.7c0 .5 0 1-.2 1.3l-.7 1-1 .7-1.5.2h-3v-10zm1.8 8.4h1.3c.5 0 1-.2 1.2-.4.3-.3.5-.7.5-1.2V163c0-.5-.2-.8-.5-1.1-.3-.3-.7-.5-1.2-.5H339v6.9zm6.8 1.6v-10h6.2v1.5h-4.5v2.6h4v1.5h-4v2.9h4.5v1.5h-6.2zm11.5-10l1.4.1 1 .6c.4.3.6.6.7 1l.3 1.2a3 3 0 01-.5 1.8c-.4.4-.8.8-1.4 1l2 4.3h-2l-1.7-4h-1.3v4H354v-10h3.3zm-1.5 4.6h1.5c.5 0 .9-.2 1.2-.5.3-.2.4-.6.4-1.1 0-.5-.1-.9-.4-1.2-.3-.3-.7-.4-1.2-.4h-1.5v3.2zM384.2 163.1a1 1 0 00-1.2-1.4l-.1.1-4.4 4.4-4.4-4.4a1 1 0 00-1.2 0h-.1a1 1 0 00-.1 1.2v.1l5.1 5.1c.3.3.9.4 1.2 0h.1l5.1-5z" fill="#fff"/>
  <path fill="#00A854" fill-opacity=".1" stroke="#00A854" stroke-width="2.6" d="M4.3 63.5h143.4v75H4.3z"/>
  <circle cx="147.5" cy="64.5" r="3.5" fill="#fff" stroke="#000" stroke-width="2"/>
  <circle cx="147.5" cy="137.5" r="3.5" fill="#fff" stroke="#000" stroke-width="2"/>
  <circle cx="4.5" cy="137.5" r="3.5" fill="#fff" stroke="#000" stroke-width="2"/>
  <circle cx="4.5" cy="64.5" r="3.5" fill="#fff" stroke="#000" stroke-width="2"/>
  <path fill="#000" d="M9 38h112v24H9z"/>
  <path d="M17.4 45l1.3.1 1 .6c.4.3.6.6.8 1l.2 1.2a3 3 0 01-.5 1.8c-.3.4-.8.8-1.4 1l2 4.3H19l-1.8-4h-1.3v4H14V45h3.4zm-1.6 4.6h1.6c.4 0 .8-.2 1.1-.5.3-.2.4-.6.4-1.1 0-.5-.1-.9-.4-1.2-.3-.3-.7-.4-1.1-.4h-1.6v3.2zm6.8 5.4V45h6.2v1.5h-4.5V49h4v1.6h-4v2.9h4.5V55h-6.2zm11.5.1c-.5 0-1 0-1.4-.2a2.8 2.8 0 01-1.7-1.6c-.2-.4-.3-.8-.3-1.3V48c0-.5.1-1 .3-1.3a2.8 2.8 0 011.7-1.6 4 4 0 011.4-.2c.5 0 .9 0 1.3.2.4.1.7.3 1 .6.3.2.5.6.7 1 .2.3.3.7.3 1.1h-1.8c0-.4-.1-.7-.4-1-.3-.2-.7-.4-1.1-.4-.5 0-1 .2-1.2.5-.3.2-.4.6-.4 1V52c0 .5.1.9.4 1.2.3.2.7.4 1.2.4.4 0 .8-.2 1-.4.4-.3.5-.6.5-1h1.8a3 3 0 01-1 2.1c-.6.6-1.4.8-2.3.8zm5.2-8.7V45h6.1v1.5h-2.1v7h2.1V55h-6v-1.5h2.1v-7h-2.2zM51.1 45c.5 0 1 0 1.4.2l1 .7c.3.2.5.5.7 1 .2.3.2.7.2 1.2 0 .4 0 .9-.2 1.2l-.7 1c-.3.3-.6.5-1 .6-.4.2-.9.2-1.4.2h-1.7v4h-1.8V45h3.5zm-1.7 4.7H51c.5 0 .9-.2 1.1-.5.3-.3.5-.6.5-1.1 0-.5-.2-.9-.5-1.2-.2-.3-.6-.4-1.1-.4h-1.7v3.2zm6.7-3.2V45h6.1v1.5h-2.1v7h2.1V55h-6v-1.5h2v-7h-2zm8.5 8.6V45h6.2v1.5h-4.5V49h4v1.6h-4v2.9h4.5V55h-6.2zm10.3-10l2.4 6.6.1.5a21.7 21.7 0 01.3 1.2h.1v-.2a223.2 223.2 0 01-.2-2V45h1.6V55H77l-2.3-6.7a5.8 5.8 0 01-.3-1.2l-.1-.5H74a52.6 52.6 0 01.2 2.2V55h-1.6V45H75zm5.8 1.5V45H88v1.6h-2.8V55h-1.7v-8.5h-2.8zM111.2 48.1a1 1 0 00-1.2-1.4l-.1.1-4.4 4.4-4.4-4.4a1 1 0 00-1.2 0h-.1a1 1 0 00-.1 1.2v.1l5.1 5.1c.3.3.9.4 1.2 0h.1l5.1-5z" fill="#fff"/>
</svg>
